<?xml version="1.0" standalone="no"?>
<!DOCTYPE svg PUBLIC "-//W3C//DTD SVG 20010904//EN"
 "http://www.w3.org/TR/2001/REC-SVG-20010904/DTD/svg10.dtd">
<svg version="1.0" xmlns="http://www.w3.org/2000/svg"
 width="128.000000pt" height="128.000000pt" viewBox="0 0 128.000000 128.000000"
 preserveAspectRatio="xMidYMid meet">
<metadata>
Created by potrace 1.11, written by Peter Selinger 2001-2013
</metadata>
<g transform="translate(0.000000,128.000000) scale(0.100000,-0.100000)"
fill="#000000" stroke="none">
<path d="M472 1229 c-75 -13 -196 -55 -251 -86 -74 -43 -156 -133 -180 -198
-25 -66 -25 -103 -3 -167 22 -62 62 -109 147 -176 139 -110 169 -143 177 -192
36 -234 40 -248 77 -283 51 -49 179 -99 266 -104 66 -5 74 -3 152 36 94 48
139 92 123 121 -6 10 -10 79 -10 154 0 133 0 135 28 163 28 30 123 138 157
180 11 14 32 47 48 74 23 43 27 61 27 134 0 67 -4 92 -21 122 -50 91 -145 159
-284 203 -58 19 -98 23 -235 26 -91 1 -189 -1 -218 -7z m341 -54 c256 -45 381
-218 291 -402 -16 -32 -60 -90 -98 -131 -39 -40 -81 -89 -93 -108 -21 -30 -29
-34 -68 -34 -43 0 -45 1 -45 30 0 38 27 91 78 156 74 94 92 130 92 184 0 42
-4 52 -26 66 -26 18 -43 19 -229 11 -278 -11 -375 -46 -375 -135 0 -39 11 -62
55 -117 62 -77 109 -200 83 -216 -28 -18 -51 -7 -111 53 -35 35 -95 92 -135
128 -61 54 -77 76 -99 129 -27 70 -25 95 18 181 79 161 383 255 662 205z
m-123 -318 c0 -24 5 -48 12 -55 19 -19 73 -14 103 10 23 18 26 26 22 55 -6 32
-4 34 21 31 40 -4 42 -53 5 -110 -15 -24 -30 -45 -33 -48 -58 -57 -120 -169
-120 -217 0 -29 -2 -31 -47 -36 -51 -6 -73 4 -73 33 0 23 -64 146 -99 190 -15
19 -35 51 -45 70 -16 33 -16 36 2 60 11 14 29 26 41 28 17 3 21 -2 21 -21 0
-36 61 -87 103 -87 18 0 38 5 45 12 15 15 16 84 2 93 -20 12 -10 35 15 35 23
0 25 -4 25 -43z m170 -455 l0 -38 -97 -18 c-54 -9 -135 -20 -180 -23 -91 -7
-87 -9 -97 62 l-5 40 93 -2 c73 -1 236 8 279 16 4 0 7 -16 7 -37z m3 -132 c4
-16 4 -36 1 -44 -7 -18 -122 -44 -231 -53 -78 -6 -84 -5 -103 17 -11 13 -20
36 -20 52 l0 28 98 1 c53 0 129 6 167 13 39 8 73 14 76 15 4 0 9 -12 12 -29z
m-28 -140 c-8 -13 -60 -40 -96 -50 -28 -8 -109 6 -109 19 0 4 42 14 93 23 121
20 119 20 112 8z"/>
</g>
</svg>
